<?xml version="1.0" standalone="no"?>
<!DOCTYPE svg PUBLIC "-//W3C//DTD SVG 20010904//EN"
 "http://www.w3.org/TR/2001/REC-SVG-20010904/DTD/svg10.dtd">
<svg version="1.0" xmlns="http://www.w3.org/2000/svg"
 width="900.000000pt" height="900.000000pt" viewBox="0 0 900.000000 900.000000"
 preserveAspectRatio="xMidYMid meet">

<g transform="translate(0.000000,900.000000) scale(0.100000,-0.100000)"
fill="#000000" stroke="none">
<path d="M4300 8784 c-19 -2 -84 -9 -145 -15 -274 -26 -671 -111 -931 -198
-780 -260 -1491 -726 -1947 -1273 -648 -778 -1004 -1677 -1066 -2688 -5 -80
-7 -161 -5 -180 2 -19 8 -102 15 -185 47 -627 256 -1301 574 -1855 181 -315
416 -632 658 -886 193 -204 530 -464 863 -666 553 -336 1246 -559 1924 -619
697 -61 1588 149 2308 545 408 225 799 523 1060 807 571 624 974 1442 1116
2264 51 297 60 396 60 665 0 208 -4 286 -23 425 -92 698 -309 1296 -690 1900
-93 148 -254 364 -347 467 -38 42 -94 106 -124 142 -103 123 -377 360 -605
523 -423 301 -951 550 -1450 683 -161 43 -437 97 -620 120 -151 20 -534 35
-625 24z m1098 -1903 c52 -10 109 -54 135 -104 17 -33 20 -66 25 -291 l5 -253
433 -5 c239 -3 437 -8 442 -12 4 -4 7 -406 7 -893 0 -822 -1 -885 -17 -897
-15 -11 -12 -16 33 -50 27 -21 69 -60 93 -87 l43 -48 20 22 c11 12 31 40 44
62 l24 40 3 927 2 926 66 7 c112 12 434 1 475 -17 53 -23 105 -73 131 -126
l23 -47 0 -1865 0 -1865 -30 -58 c-32 -64 -83 -107 -150 -126 -30 -9 -719 -11
-2731 -9 l-2691 3 -55 37 c-44 29 -62 49 -84 95 l-29 58 0 1865 c0 1697 2
1868 16 1901 25 53 74 105 127 131 45 22 56 23 287 23 132 0 247 -3 255 -6 13
-6 14 -62 10 -450 -3 -244 -3 -660 0 -924 5 -524 3 -499 65 -573 l26 -31 29
32 c15 18 59 57 98 87 57 45 67 56 52 62 -16 6 -18 29 -25 265 -8 275 -2 1519
7 1528 3 3 201 9 440 12 l435 6 6 255 c6 219 10 261 25 291 24 47 83 92 129
101 53 11 1748 11 1801 1z"/>
<path d="M4094 6623 l-371 -3 -5 -98 c-3 -53 -3 -140 -1 -193 l6 -96 388 -6
c214 -3 564 -3 778 0 l388 6 6 96 c2 53 2 140 -1 194 l-5 97 -347 0 c-191 0
-374 1 -406 3 -32 2 -226 2 -430 0z"/>
<path d="M4335 4275 c-236 -553 -431 -1010 -433 -1015 -2 -6 49 -10 140 -10
l143 0 433 1008 c238 554 432 1010 432 1015 0 4 -64 7 -142 7 l-143 0 -430
-1005z"/>
<path d="M5552 4802 l-91 -98 305 -254 c167 -139 303 -257 302 -262 -2 -4
-125 -108 -274 -230 -148 -123 -285 -236 -304 -251 l-33 -29 95 -95 95 -95
389 327 c214 180 402 340 417 354 l28 28 -403 338 c-222 186 -410 344 -419
352 -14 12 -27 2 -107 -85z"/>
<path d="M2941 4546 c-223 -187 -406 -346 -407 -351 -2 -8 803 -694 825 -703
8 -3 197 186 190 191 -302 250 -606 501 -612 506 -4 4 132 122 303 261 l310
255 -92 92 c-51 51 -97 93 -103 92 -5 0 -192 -155 -414 -343z"/>
<path d="M3253 4303 c-77 -63 -127 -111 -120 -114 7 -4 238 -9 514 -12 l502
-5 14 21 c17 29 87 192 87 206 0 8 -130 11 -433 11 l-433 0 -131 -107z"/>
<path d="M4790 4346 c-39 -85 -72 -168 -67 -172 6 -7 1157 9 1157 15 0 4 -58
55 -129 114 l-129 107 -401 0 -401 0 -30 -64z"/>
</g>
</svg>
